<?xml version="1.0" encoding="UTF-8" standalone="no"?>
<!-- Created with Inkscape (http://www.inkscape.org/) -->

<svg
   xmlns:dc="http://purl.org/dc/elements/1.1/"
   xmlns:cc="http://creativecommons.org/ns#"
   xmlns:rdf="http://www.w3.org/1999/02/22-rdf-syntax-ns#"
   xmlns:svg="http://www.w3.org/2000/svg"
   xmlns="http://www.w3.org/2000/svg"
   xmlns:xlink="http://www.w3.org/1999/xlink"
   xmlns:sodipodi="http://sodipodi.sourceforge.net/DTD/sodipodi-0.dtd"
   xmlns:inkscape="http://www.inkscape.org/namespaces/inkscape"
   width="320"
   height="320"
   id="svg2"
   version="1.1"
   inkscape:version="0.48.5 r10040"
   sodipodi:docname="casing.inert.svg"
   inkscape:export-filename="C:\Users\Johannes\git\GT5-Unofficial\misc\vector\casing.inert.png"
   inkscape:export-xdpi="4.5"
   inkscape:export-ydpi="4.5">
  <defs
     id="defs4">
    <linearGradient
       id="linearGradient3779">
      <stop
         style="stop-color:#000000;stop-opacity:1;"
         offset="0"
         id="stop3781" />
      <stop
         id="stop3787"
         offset="0.5"
         style="stop-color:#505050;stop-opacity:1;" />
      <stop
         style="stop-color:#a0a0a0;stop-opacity:1;"
         offset="1"
         id="stop3783" />
    </linearGradient>
    <linearGradient
       id="linearGradient3769">
      <stop
         style="stop-color:#000000;stop-opacity:1;"
         offset="0"
         id="stop3771" />
      <stop
         id="stop3777"
         offset="0.5"
         style="stop-color:#3c3c3c;stop-opacity:1;" />
      <stop
         style="stop-color:#787878;stop-opacity:1;"
         offset="1"
         id="stop3773" />
    </linearGradient>
    <linearGradient
       inkscape:collect="always"
       xlink:href="#linearGradient3769"
       id="linearGradient3775"
       x1="480"
       y1="480"
       x2="-160"
       y2="-160"
       gradientUnits="userSpaceOnUse" />
    <linearGradient
       inkscape:collect="always"
       xlink:href="#linearGradient3779"
       id="linearGradient3785"
       x1="400"
       y1="400"
       x2="-80"
       y2="-80"
       gradientUnits="userSpaceOnUse"
       gradientTransform="translate(0,-2.6171874e-6)" />
    <linearGradient
       inkscape:collect="always"
       xlink:href="#linearGradient3779"
       id="linearGradient3880"
       gradientUnits="userSpaceOnUse"
       gradientTransform="translate(0,732.36218)"
       x1="480"
       y1="480"
       x2="-160"
       y2="-160" />
  </defs>
  <sodipodi:namedview
     id="base"
     pagecolor="#ffffff"
     bordercolor="#666666"
     borderopacity="1.0"
     inkscape:pageopacity="0.0"
     inkscape:pageshadow="2"
     inkscape:zoom="0.98994949"
     inkscape:cx="-107.66562"
     inkscape:cy="146.71867"
     inkscape:document-units="px"
     inkscape:current-layer="layer1"
     showgrid="false"
     inkscape:window-width="1920"
     inkscape:window-height="1017"
     inkscape:window-x="-8"
     inkscape:window-y="-8"
     inkscape:window-maximized="1">
    <inkscape:grid
       type="xygrid"
       id="grid2982" />
  </sodipodi:namedview>
  <metadata
     id="metadata7">
    <rdf:RDF>
      <cc:Work
         rdf:about="">
        <dc:format>image/svg+xml</dc:format>
        <dc:type
           rdf:resource="http://purl.org/dc/dcmitype/StillImage" />
        <dc:title></dc:title>
      </cc:Work>
    </rdf:RDF>
  </metadata>
  <g
     inkscape:label="Ebene 1"
     inkscape:groupmode="layer"
     id="layer1"
     transform="translate(0,-732.36218)">
    <rect
       style="opacity:0.98000003999999996;fill:#b6b6b6;fill-opacity:1;fill-rule:nonzero;stroke:none"
       id="rect2995"
       width="235.71428"
       height="238.57143"
       x="411.42856"
       y="-152.85715"
       transform="translate(0,732.36218)" />
    <rect
       style="opacity:0.98000003999999996;fill:url(#linearGradient3775);fill-opacity:1.0;fill-rule:nonzero;stroke:none"
       id="rect3765"
       width="320"
       height="320"
       x="0"
       y="0"
       transform="translate(0,732.36218)" />
    <path
       style="opacity:0.98000003999999996;fill:url(#linearGradient3880);fill-opacity:1;fill-rule:nonzero;stroke:none"
       d="m 20,752.36218 0,280.00002 280,0 0,-280.00002 -280,0 z m 20,20 20,0 0,20 -20,0 0,-20 z m 60,0 20,0 0,20 -20,0 0,-20 z m 100,0 20,0 0,20 -20,0 0,-20 z m 60,0 20,0 0,20 -20,0 0,-20 z m -220,60 20,0 0,20 -20,0 0,-20 z m 220,0 20,0 0,20 -20,0 0,-20 z m -220,100 20,0 0,20 -20,0 0,-20 z m 220,0 20,0 0,20 -20,0 0,-20 z m -220,60 20,0 0,20.00002 -20,0 0,-20.00002 z m 60,0 20,0 0,20.00002 -20,0 0,-20.00002 z m 100,0 20,0 0,20.00002 -20,0 0,-20.00002 z m 60,0 20,0 0,20.00002 -20,0 0,-20.00002 z"
       id="rect3767"
       inkscape:connector-curvature="0" />
  </g>
</svg>
